<svg width="163" height="246" viewBox="0 0 163 246" fill="none" xmlns="http://www.w3.org/2000/svg">
<path d="M99.2102 235C93.9002 235.26 91.3002 235.31 90.1402 234.79C89.3702 237.1 88.6702 239.96 89.6302 240.69C91.3102 241.95 98.5502 244.6 109.32 244.24C120.09 243.88 118.59 238.89 117.94 236.43C117.745 235.563 117.641 234.678 117.63 233.79C114.07 235.91 107.57 234.59 99.2102 235Z" fill="#2A5135"/>
<path d="M99.2102 235C93.9002 235.26 91.3002 235.31 90.1402 234.79C89.3702 237.1 88.6702 239.96 89.6302 240.69C91.3102 241.95 98.5502 244.6 109.32 244.24C120.09 243.88 118.59 238.89 117.94 236.43C117.745 235.563 117.641 234.678 117.63 233.79C114.07 235.91 107.57 234.59 99.2102 235" stroke="#231F20" stroke-width="1.17" stroke-miterlimit="10"/>
<path d="M74.0002 235.35C65.6402 235.2 59.1802 236.73 55.5502 234.72C55.5632 235.609 55.4895 236.496 55.3302 237.37C54.7502 239.84 53.4002 244.89 64.1902 244.91C74.9802 244.93 82.1102 242.04 83.7502 240.73C84.6902 239.98 83.9002 237.14 83.0602 234.85C81.9202 235.41 79.3102 235.44 74.0002 235.35Z" fill="#2A5135"/>
<path d="M74.0002 235.35C65.6402 235.2 59.1802 236.73 55.5502 234.72C55.5632 235.609 55.4895 236.496 55.3302 237.37C54.7502 239.84 53.4002 244.89 64.1902 244.91C74.9802 244.93 82.1102 242.04 83.7502 240.73C84.6902 239.98 83.9002 237.14 83.0602 234.85C81.9202 235.41 79.3102 235.44 74.0002 235.35Z" stroke="#231F20" stroke-width="1.17" stroke-miterlimit="10"/>
<path d="M151.09 135.73L149.62 133.58L128.79 152.3L130.52 154.33L151.09 135.73Z" fill="#7DA840"/>
<path d="M130.5 191.8C129.3 206.18 122.31 225.98 120.39 231.7C119.993 233.034 119.112 234.172 117.92 234.89C114.34 237.03 107.8 235.7 99.3996 236.12C94.0496 236.38 91.3996 236.42 90.2696 235.9C89.1396 235.38 89.4296 234.12 89.9696 231.81C90.9696 227.34 92.7196 217.67 87.9096 218.49C86.9117 218.582 85.9075 218.582 84.9096 218.49C80.0796 217.82 82.0796 227.49 83.2596 231.87C83.8796 234.16 84.3196 235.36 83.0996 235.96C81.8796 236.56 79.3296 236.56 73.9796 236.47C65.5696 236.31 59.0796 237.85 55.4296 235.83C54.2175 235.147 53.3018 234.039 52.8596 232.72C50.7596 227.03 42.8596 206.17 41.3096 191.83L130.5 191.8Z" fill="#231F20"/>
<path d="M130.5 191.8C129.3 206.18 122.31 225.98 120.39 231.7C119.993 233.034 119.112 234.172 117.92 234.89C114.34 237.03 107.8 235.7 99.3996 236.12C94.0496 236.38 91.3996 236.42 90.2696 235.9C89.1396 235.38 89.4296 234.12 89.9696 231.81C90.9696 227.34 92.7196 217.67 87.9096 218.49C86.9117 218.582 85.9075 218.582 84.9096 218.49C80.0796 217.82 82.0796 227.49 83.2596 231.87C83.8796 234.16 84.3196 235.36 83.0996 235.96C81.8796 236.56 79.3296 236.56 73.9796 236.47C65.5696 236.31 59.0796 237.85 55.4296 235.83C54.2175 235.147 53.3018 234.039 52.8596 232.72C50.7596 227.03 42.8596 206.17 41.3096 191.83L130.5 191.8Z" stroke="#231F20" stroke-width="1.17" stroke-miterlimit="10"/>
<path d="M116.96 144.61H102.07V147.37H116.96V144.61Z" fill="#7DA840"/>
<path d="M103.17 140.49C103.149 140.409 103.101 140.338 103.033 140.289C102.966 140.239 102.883 140.215 102.8 140.22C102.61 140.22 102.51 140.29 102.51 140.43C102.51 140.57 102.61 140.62 102.82 140.66L103.03 140.71H103.16C103.235 140.731 103.306 140.765 103.37 140.81C103.456 140.868 103.527 140.947 103.574 141.04C103.621 141.133 103.644 141.236 103.64 141.34C103.642 141.448 103.619 141.556 103.574 141.654C103.529 141.753 103.463 141.84 103.38 141.91C103.207 142.021 103.006 142.081 102.8 142.081C102.594 142.081 102.393 142.021 102.22 141.91C102.065 141.8 101.958 141.636 101.92 141.45L102.38 141.33C102.397 141.428 102.451 141.516 102.531 141.576C102.611 141.635 102.711 141.662 102.81 141.65C102.891 141.653 102.971 141.632 103.04 141.59C103.074 141.575 103.102 141.549 103.12 141.517C103.138 141.484 103.145 141.447 103.14 141.41C103.143 141.376 103.135 141.342 103.12 141.312C103.104 141.282 103.079 141.257 103.05 141.24H102.93H102.76L102.56 141.19L102.39 141.13C102.289 141.08 102.2 141.009 102.13 140.92C102.061 140.809 102.027 140.68 102.03 140.55C102.028 140.45 102.047 140.351 102.087 140.26C102.126 140.168 102.186 140.086 102.26 140.02C102.364 139.939 102.486 139.884 102.616 139.857C102.745 139.831 102.879 139.835 103.006 139.869C103.134 139.903 103.252 139.966 103.352 140.053C103.451 140.139 103.529 140.248 103.58 140.37L103.17 140.49Z" fill="#892781"/>
<path d="M104.39 142.1H103.9V139.83H104.78H105.09C105.177 139.846 105.258 139.88 105.33 139.93C105.412 139.994 105.477 140.076 105.52 140.17C105.565 140.275 105.589 140.387 105.59 140.5C105.594 140.624 105.559 140.747 105.49 140.85C105.429 140.955 105.334 141.036 105.22 141.08L105.61 142.08H105.07L104.74 141.19H104.39V142.1ZM104.39 140.82H104.66C104.759 140.841 104.862 140.841 104.96 140.82C105.001 140.791 105.034 140.751 105.055 140.706C105.076 140.66 105.085 140.61 105.08 140.56C105.089 140.517 105.089 140.473 105.08 140.43L104.99 140.33C104.925 140.309 104.855 140.309 104.79 140.33H104.42L104.39 140.82Z" fill="#892781"/>
<path d="M106.35 139.84H105.86V142.11H106.35V139.84Z" fill="#892781"/>
<path d="M109.14 140.28H108.62V142.1H108.12V140.28H107.59V139.84H109.14V140.28Z" fill="#892781"/>
<path d="M109.84 142.1H109.35V139.83H110.24H110.54C110.626 139.846 110.708 139.88 110.78 139.93C110.861 139.994 110.926 140.076 110.97 140.17C111.019 140.273 111.043 140.386 111.04 140.5C111.043 140.624 111.008 140.747 110.94 140.85C110.884 140.956 110.791 141.038 110.68 141.08L111.06 142.08H110.52L110.2 141.19H109.84V142.1ZM109.84 140.82H110.11C110.208 140.841 110.311 140.841 110.41 140.82C110.45 140.791 110.483 140.751 110.504 140.706C110.525 140.66 110.534 140.61 110.53 140.56C110.538 140.517 110.538 140.473 110.53 140.43C110.508 140.39 110.477 140.356 110.44 140.33C110.375 140.309 110.305 140.309 110.24 140.33H109.87L109.84 140.82Z" fill="#892781"/>
<path d="M113 142.1H112.47L112.35 141.63H111.67L111.54 142.1H111.1L111.77 139.84H112.35L113 142.1ZM112.23 141.22L112 140.42L111.78 141.22H112.23Z" fill="#892781"/>
<path d="M114.83 142.1H114.4L113.6 140.58H113.59V142.1H113.21V139.84H113.74L114.44 141.17H114.45V139.84H114.83V142.1Z" fill="#892781"/>
<path d="M116 141.31V140.9H116.86V142.1H116.64L116.57 141.84C116.5 141.932 116.412 142.007 116.31 142.06L116.17 142.11C116.113 142.121 116.056 142.121 116 142.11C115.87 142.117 115.742 142.09 115.626 142.032C115.51 141.974 115.412 141.888 115.34 141.78C115.19 141.537 115.113 141.256 115.12 140.97C115.12 140.773 115.154 140.577 115.22 140.39C115.281 140.218 115.388 140.066 115.53 139.95C115.66 139.859 115.812 139.805 115.97 139.793C116.128 139.78 116.287 139.811 116.43 139.88C116.549 139.943 116.649 140.036 116.72 140.15C116.794 140.279 116.842 140.422 116.86 140.57L116.39 140.63C116.399 140.577 116.399 140.523 116.39 140.47C116.373 140.419 116.346 140.371 116.31 140.33C116.279 140.291 116.239 140.261 116.194 140.242C116.148 140.222 116.099 140.215 116.05 140.22C115.979 140.218 115.911 140.239 115.854 140.281C115.798 140.323 115.758 140.383 115.74 140.45C115.677 140.62 115.646 140.8 115.65 140.98C115.65 141.149 115.684 141.315 115.75 141.47C115.773 141.523 115.809 141.57 115.855 141.605C115.9 141.641 115.954 141.666 116.011 141.677C116.068 141.687 116.126 141.684 116.182 141.667C116.237 141.651 116.288 141.621 116.33 141.58C116.393 141.497 116.425 141.395 116.42 141.29L116 141.31Z" fill="#892781"/>
<path d="M110.71 139.06C110.095 139.059 109.482 138.998 108.88 138.88L108.47 138.81L107.92 138.71L107.37 138.61C106.379 138.425 105.376 138.308 104.37 138.26C103.442 138.288 102.517 138.371 101.6 138.51C102.135 138.257 102.71 138.098 103.3 138.04C103.594 137.988 103.891 137.955 104.19 137.94H104.59H104.79H105.49C106.253 138.009 107.012 138.13 107.76 138.3L109.34 138.61C109.34 138.61 109.95 138.7 110.26 138.71H110.85C110.855 138.254 110.798 137.8 110.68 137.36C110.547 136.986 110.336 136.645 110.06 136.36C110.001 136.358 109.945 136.337 109.9 136.3C109.86 136.273 109.826 136.239 109.8 136.2H109.71C109.578 136.206 109.45 136.248 109.34 136.32C109.202 136.423 109.086 136.552 109 136.7C108.977 136.571 108.977 136.439 109 136.31C109.06 136.216 109.13 136.129 109.21 136.05C109.084 135.998 108.963 135.935 108.85 135.86C108.599 135.63 108.316 135.438 108.01 135.29C107.925 135.247 107.834 135.22 107.74 135.21H107.65C107.498 135.211 107.35 135.253 107.22 135.33C107.232 135.199 107.28 135.075 107.36 134.97C107.461 134.888 107.581 134.833 107.71 134.81C107.703 134.747 107.709 134.684 107.728 134.624C107.747 134.563 107.778 134.508 107.82 134.46C107.842 134.437 107.868 134.419 107.897 134.407C107.927 134.395 107.958 134.389 107.99 134.39H108H108.08C108.131 134.211 108.225 134.047 108.354 133.913C108.483 133.779 108.643 133.678 108.82 133.62C109.016 133.535 109.226 133.488 109.44 133.48C109.574 133.476 109.708 133.504 109.83 133.56C109.857 133.499 109.902 133.447 109.959 133.412C110.016 133.376 110.082 133.358 110.15 133.36C110.22 133.359 110.289 133.376 110.35 133.41C110.405 133.435 110.453 133.473 110.49 133.52C110.521 133.476 110.563 133.441 110.612 133.418C110.661 133.395 110.716 133.385 110.77 133.39H110.83C110.928 133.401 111.023 133.432 111.11 133.48L111.17 133.54C110.84 133.801 110.588 134.147 110.44 134.54C110.341 134.775 110.29 135.026 110.29 135.28C110.29 135.4 110.29 135.45 110.29 135.45C110.372 135.436 110.457 135.436 110.54 135.45H110.64C110.779 135.486 110.907 135.559 111.01 135.66C110.935 135.634 110.858 135.618 110.78 135.61C110.702 135.608 110.626 135.629 110.56 135.67C110.465 135.726 110.374 135.79 110.29 135.86C110.298 135.906 110.298 135.954 110.29 136C110.275 136.043 110.255 136.083 110.23 136.12C110.601 136.504 110.854 136.987 110.96 137.51C111.022 137.86 111.052 138.215 111.05 138.57C111.574 138.464 112.085 138.297 112.57 138.07C112.849 137.94 113.103 137.76 113.32 137.54C113.842 136.796 114.054 135.878 113.91 134.98C113.858 134.924 113.811 134.864 113.77 134.8L113.69 134.71H113.64C113.537 134.7 113.433 134.7 113.33 134.71C113.15 134.71 112.973 134.747 112.81 134.82C112.585 134.943 112.376 135.094 112.19 135.27C112.271 135.015 112.415 134.784 112.61 134.6C112.741 134.474 112.909 134.393 113.09 134.37C112.91 134.233 112.766 134.055 112.67 133.85C112.485 133.473 112.23 133.133 111.92 132.85C111.785 132.724 111.638 132.614 111.48 132.52C111.269 132.38 111.023 132.3 110.77 132.29H110.71C110.737 132.198 110.783 132.111 110.845 132.037C110.907 131.963 110.983 131.903 111.07 131.86C111.172 131.846 111.277 131.846 111.38 131.86C111.459 131.854 111.54 131.854 111.62 131.86C111.711 131.696 111.851 131.563 112.02 131.48C112.086 131.47 112.153 131.47 112.22 131.48C112.352 131.483 112.484 131.507 112.61 131.55C112.758 131.365 112.949 131.218 113.167 131.124C113.385 131.03 113.623 130.991 113.86 131.01H113.96C114.479 131.002 114.981 131.195 115.36 131.55C115.491 131.502 115.63 131.475 115.77 131.47C115.835 131.455 115.904 131.455 115.97 131.47C116.104 131.54 116.216 131.648 116.29 131.78H116.35C116.54 131.778 116.728 131.819 116.9 131.9C117.035 131.983 117.146 132.1 117.22 132.24C116.735 132.395 116.288 132.65 115.91 132.99C115.6 133.277 115.343 133.615 115.15 133.99C115.085 134.102 115.011 134.209 114.93 134.31C115.04 134.31 115.5 134.31 115.67 134.56C115.796 134.73 115.86 134.938 115.85 135.15C115.642 135 115.402 134.9 115.15 134.86C114.76 134.86 114.46 134.79 114.46 134.79C114.456 134.818 114.447 134.844 114.434 134.868C114.42 134.892 114.402 134.913 114.38 134.93C114.323 134.977 114.258 135.014 114.19 135.04C114.238 135.636 114.201 136.235 114.08 136.82C113.987 137.211 113.81 137.576 113.56 137.89C113.495 137.966 113.425 138.036 113.35 138.1C113.626 138.009 113.911 137.949 114.2 137.92H114.62C115.42 137.932 116.2 138.171 116.87 138.61L117.06 138.73H116.93C116.611 138.599 116.273 138.521 115.93 138.5H115.54H115.35H115.04H115C114.474 138.564 113.953 138.661 113.44 138.79L113.06 138.88C112.598 138.987 112.13 139.067 111.66 139.12C111.348 139.165 111.034 139.185 110.72 139.18" fill="#892781"/>
<path d="M130.49 154.3L151.09 135.73C151.09 135.73 137.2 114.05 124.62 111.86C120.62 111.16 60.0004 119.65 60.0004 119.65C59.1404 115.81 57.1304 113.15 53.0604 113.65C40.3904 115.24 24.1904 135.65 24.1904 135.65L45.5704 155.65L47.8004 153.17C45.5104 161.88 41.1104 176.96 41.2804 187.91C41.2804 189.17 41.3904 190.51 41.5404 191.91L130.23 191.85C130.421 190.074 130.508 188.287 130.49 186.5C130.3 174.4 127.49 156.67 126.09 149.07L130.49 154.3Z" fill="#96C93D"/>
<path d="M130.49 154.3L151.09 135.73C151.09 135.73 137.2 114.05 124.62 111.86C120.62 111.16 60.0004 119.65 60.0004 119.65C59.1404 115.81 57.1304 113.15 53.0604 113.65C40.3904 115.24 24.1904 135.65 24.1904 135.65L45.5704 155.65L47.8004 153.17C45.5104 161.88 41.1104 176.96 41.2804 187.91C41.2804 189.17 41.3904 190.51 41.5404 191.91L130.23 191.85C130.421 190.074 130.508 188.287 130.49 186.5C130.3 174.4 127.49 156.67 126.09 149.07L130.49 154.3Z" stroke="#231F20" stroke-width="1.17" stroke-linecap="round" stroke-linejoin="round"/>
<path d="M41.54 191.86L130.23 191.8" stroke="#231F20" stroke-width="1.17" stroke-linecap="round" stroke-linejoin="round"/>
<path d="M24.1904 135.61L28.4204 130.93L49.8504 151.01L45.5704 155.6L24.1904 135.61Z" fill="#7DA840"/>
<path d="M24.1904 135.61L28.4204 130.93L49.8504 151.01L45.5704 155.6L24.1904 135.61Z" stroke="#231F20" stroke-width="1.17" stroke-miterlimit="10"/>
<path d="M123.48 157.52L119.85 152.37L147.45 131.08L150.99 136.26L123.48 157.52Z" fill="#7DA840"/>
<path d="M123.48 157.52L119.85 152.37L147.45 131.08L150.99 136.26L123.48 157.52Z" stroke="#231F20" stroke-width="1.17" stroke-miterlimit="10"/>
<path d="M31.4002 125.36L31.8902 125.82C31.9367 125.852 31.976 125.893 32.0056 125.941C32.0351 125.988 32.0543 126.042 32.0619 126.098C32.0694 126.153 32.0652 126.21 32.0494 126.264C32.0336 126.318 32.0066 126.368 31.9702 126.41C31.926 126.466 31.8652 126.505 31.7967 126.523C31.7283 126.541 31.6559 126.537 31.5902 126.51C31.6163 126.572 31.6236 126.64 31.6111 126.706C31.5987 126.772 31.5671 126.832 31.5202 126.88C31.5202 126.88 31.3502 127.07 31.3502 127.13L31.1002 126.9C31.132 126.835 31.1724 126.775 31.2202 126.72C31.3102 126.61 31.3802 126.5 31.2702 126.39L31.0802 126.21L30.7402 126.56L30.4902 126.32L31.4002 125.36ZM31.2502 126.01L31.4602 126.21C31.474 126.227 31.4911 126.24 31.5104 126.249C31.5297 126.258 31.5508 126.263 31.5721 126.264C31.5935 126.264 31.6148 126.26 31.6344 126.252C31.654 126.243 31.6716 126.231 31.686 126.215C31.7004 126.199 31.7112 126.18 31.7178 126.16C31.7244 126.139 31.7265 126.118 31.7241 126.097C31.7216 126.075 31.7147 126.055 31.7036 126.037C31.6926 126.018 31.6778 126.002 31.6602 125.99L31.4602 125.8L31.2502 126.01Z" fill="#804C9E"/>
<path d="M32.1702 127.92L31.9502 127.71L32.0402 127.61C31.9851 127.623 31.9277 127.621 31.8734 127.606C31.8192 127.59 31.7698 127.56 31.7302 127.52C31.5202 127.33 31.5702 127.16 31.7302 126.98L32.1302 126.56L32.3502 126.77L31.9702 127.18C31.9516 127.194 31.9364 127.212 31.926 127.233C31.9156 127.254 31.9102 127.277 31.9102 127.3C31.9102 127.323 31.9156 127.346 31.926 127.367C31.9364 127.388 31.9516 127.406 31.9702 127.42C32.0076 127.457 32.0578 127.477 32.1102 127.477C32.1625 127.477 32.2128 127.457 32.2502 127.42L32.6102 127.04L32.8302 127.26L32.1702 127.92Z" fill="#804C9E"/>
<path d="M33.2599 127.13L33.4999 127.35L33.1699 127.69C33.2219 127.679 33.2759 127.682 33.3267 127.697C33.3774 127.713 33.4233 127.742 33.4599 127.78C33.5046 127.82 33.5404 127.868 33.5649 127.923C33.5894 127.977 33.6021 128.036 33.6021 128.095C33.6021 128.155 33.5894 128.214 33.5649 128.268C33.5404 128.322 33.5046 128.371 33.4599 128.41C33.4234 128.464 33.3761 128.509 33.321 128.543C33.2659 128.577 33.2042 128.599 33.14 128.607C33.0758 128.616 33.0106 128.611 32.9485 128.592C32.8865 128.574 32.829 128.543 32.7799 128.5C32.7395 128.467 32.7089 128.423 32.6913 128.374C32.6737 128.325 32.6697 128.272 32.6799 128.22L32.5999 128.3L32.3799 128.09L33.2599 127.13ZM32.9099 127.94C32.7999 128.06 32.7499 128.18 32.9099 128.28C33.0699 128.38 33.1499 128.28 33.2399 128.2C33.3299 128.12 33.3799 127.98 33.2399 127.89C33.0999 127.8 33.0599 127.8 32.9199 127.89" fill="#804C9E"/>
<path d="M34.1403 128L34.3703 128.22L34.0503 128.55C34.1023 128.539 34.1563 128.541 34.207 128.557C34.2578 128.573 34.3037 128.601 34.3403 128.64C34.3839 128.681 34.4186 128.731 34.4423 128.786C34.466 128.841 34.4783 128.9 34.4783 128.96C34.4783 129.02 34.466 129.079 34.4423 129.134C34.4186 129.189 34.3839 129.239 34.3403 129.28C34.303 129.333 34.2551 129.377 34.1996 129.41C34.1441 129.443 34.0823 129.464 34.0181 129.472C33.954 129.479 33.889 129.473 33.8273 129.454C33.7656 129.435 33.7087 129.403 33.6603 129.36C33.6217 129.326 33.593 129.281 33.5771 129.232C33.5613 129.183 33.5589 129.13 33.5703 129.08L33.5003 129.16L33.2803 128.95L34.1403 128ZM33.7903 128.82C33.6703 128.94 33.6303 129.05 33.7303 129.15C33.8303 129.25 33.9703 129.15 34.0603 129.07C34.1503 128.99 34.2103 128.85 34.0603 128.76C33.9103 128.67 33.8703 128.67 33.7403 128.82" fill="#804C9E"/>
<path d="M34.58 129.64C34.557 129.659 34.5385 129.683 34.5257 129.709C34.513 129.736 34.5064 129.766 34.5064 129.795C34.5064 129.825 34.513 129.854 34.5257 129.881C34.5385 129.908 34.557 129.931 34.58 129.95C34.605 129.977 34.6371 129.996 34.6726 130.005C34.7081 130.014 34.7454 130.012 34.78 130L34.99 130.2C34.8994 130.251 34.7942 130.268 34.6922 130.25C34.5902 130.232 34.4975 130.179 34.43 130.1C34.3772 130.055 34.3349 129.999 34.3058 129.936C34.2768 129.873 34.2617 129.805 34.2617 129.735C34.2617 129.666 34.2768 129.597 34.3058 129.534C34.3349 129.471 34.3772 129.415 34.43 129.37C34.4768 129.32 34.5333 129.28 34.5961 129.253C34.6589 129.226 34.7266 129.212 34.795 129.212C34.8634 129.212 34.9311 129.226 34.9939 129.253C35.0567 129.28 35.1132 129.32 35.16 129.37C35.2166 129.417 35.2622 129.476 35.2935 129.542C35.3247 129.609 35.341 129.682 35.341 129.755C35.341 129.829 35.3247 129.901 35.2935 129.968C35.2622 130.034 35.2166 130.093 35.16 130.14L34.58 129.64ZM34.98 129.78C34.9978 129.763 35.012 129.741 35.0217 129.718C35.0313 129.695 35.0363 129.67 35.0363 129.645C35.0363 129.62 35.0313 129.595 35.0217 129.572C35.012 129.549 34.9978 129.528 34.98 129.51C34.9415 129.476 34.8916 129.457 34.84 129.457C34.7883 129.457 34.7385 129.476 34.7 129.51L34.98 129.78Z" fill="#804C9E"/>
<path d="M35.6302 129.87L35.8502 130.08L35.7302 130.2C35.7864 130.172 35.8506 130.163 35.9123 130.176C35.974 130.189 36.0296 130.222 36.0702 130.27L35.8802 130.48C35.8587 130.446 35.8317 130.415 35.8002 130.39C35.7795 130.367 35.7541 130.348 35.7257 130.335C35.6972 130.322 35.6664 130.316 35.6352 130.316C35.6039 130.316 35.5731 130.322 35.5446 130.335C35.5162 130.348 35.4908 130.367 35.4702 130.39L35.1402 130.73L34.9102 130.52L35.6302 129.87Z" fill="#804C9E"/>
<path d="M31.53 124.66L31.12 124.28L31.34 123.98C31.1599 124.01 30.9753 123.997 30.8014 123.941C30.6275 123.885 30.4694 123.789 30.34 123.66C30.1769 123.507 30.0469 123.322 29.958 123.116C29.8691 122.911 29.8232 122.689 29.8232 122.465C29.8232 122.241 29.8691 122.02 29.958 121.814C30.0469 121.609 30.1769 121.424 30.34 121.27C30.484 121.099 30.6619 120.959 30.8626 120.86C31.0632 120.761 31.2823 120.704 31.5059 120.694C31.7296 120.683 31.9529 120.719 32.1619 120.8C32.3708 120.88 32.5609 121.003 32.72 121.16C33 121.38 33.1843 121.699 33.2346 122.051C33.2849 122.403 33.1973 122.761 32.99 123.05L32.36 122.46C32.4356 122.334 32.4611 122.184 32.4315 122.039C32.4018 121.895 32.3193 121.767 32.2 121.68C31.8 121.3 31.3 121.51 30.96 121.86C30.62 122.21 30.44 122.72 30.85 123.1C31.26 123.48 31.5 123.45 31.74 123.26L31.3 122.85L31.75 122.39L32.75 123.39L31.53 124.66Z" fill="#804C9E"/>
<path d="M33.3905 123.11L33.9405 123.63L33.6505 123.94C33.791 123.875 33.9487 123.855 34.1013 123.883C34.2538 123.912 34.3935 123.988 34.5005 124.1C34.5433 124.144 34.5834 124.191 34.6205 124.24L34.1305 124.77C34.0728 124.683 34.0093 124.599 33.9405 124.52C33.8889 124.463 33.8257 124.416 33.755 124.385C33.6844 124.353 33.6079 124.337 33.5305 124.337C33.4531 124.337 33.3765 124.353 33.3059 124.385C33.2352 124.416 33.1721 124.463 33.1205 124.52L32.3005 125.38L31.7305 124.84L33.3905 123.11Z" fill="#804C9E"/>
<path d="M34.2797 125.87C34.226 125.919 34.1831 125.978 34.1538 126.044C34.1244 126.111 34.1093 126.182 34.1093 126.255C34.1093 126.328 34.1244 126.399 34.1538 126.466C34.1831 126.532 34.226 126.591 34.2797 126.64C34.3447 126.706 34.4271 126.753 34.5173 126.774C34.6076 126.795 34.7021 126.79 34.7897 126.76L35.3297 127.26C35.1021 127.391 34.8357 127.439 34.5765 127.396C34.3174 127.352 34.0816 127.219 33.9097 127.02C33.7731 126.911 33.6614 126.775 33.5821 126.619C33.5029 126.463 33.458 126.293 33.4504 126.118C33.4428 125.944 33.4727 125.77 33.5382 125.608C33.6036 125.446 33.703 125.3 33.8297 125.18C33.9481 125.058 34.0896 124.962 34.2459 124.896C34.4021 124.83 34.5701 124.796 34.7397 124.796C34.9094 124.796 35.0773 124.83 35.2336 124.896C35.3899 124.962 35.5314 125.058 35.6497 125.18C35.7847 125.305 35.8906 125.459 35.9598 125.63C36.0291 125.8 36.06 125.984 36.0505 126.168C36.041 126.352 35.9912 126.532 35.9047 126.695C35.8181 126.857 35.697 126.999 35.5497 127.11L34.2797 125.87ZM35.2797 126.23C35.3677 126.139 35.4169 126.017 35.4169 125.89C35.4169 125.763 35.3677 125.641 35.2797 125.55C35.1834 125.46 35.0565 125.41 34.9247 125.41C34.7929 125.41 34.666 125.46 34.5697 125.55L35.2797 126.23Z" fill="#804C9E"/>
<path d="M36.2202 127.71C36.1665 127.759 36.1236 127.819 36.0942 127.885C36.0649 127.951 36.0497 128.023 36.0497 128.095C36.0497 128.168 36.0649 128.24 36.0942 128.306C36.1236 128.372 36.1665 128.432 36.2202 128.48C36.2851 128.547 36.3675 128.593 36.4578 128.614C36.548 128.635 36.6425 128.631 36.7302 128.6L37.2702 129.1C37.0425 129.232 36.7761 129.28 36.517 129.236C36.2578 129.192 36.022 129.059 35.8502 128.86C35.7135 128.752 35.6018 128.615 35.5226 128.459C35.4433 128.304 35.3984 128.133 35.3908 127.959C35.3832 127.784 35.4132 127.61 35.4786 127.448C35.544 127.286 35.6435 127.14 35.7702 127.02C35.8885 126.899 36.03 126.802 36.1863 126.736C36.3426 126.67 36.5105 126.636 36.6802 126.636C36.8498 126.636 37.0177 126.67 37.174 126.736C37.3303 126.802 37.4718 126.899 37.5902 127.02C37.7252 127.146 37.831 127.299 37.9003 127.47C37.9695 127.641 38.0005 127.825 37.9909 128.009C37.9814 128.193 37.9316 128.372 37.8451 128.535C37.7586 128.698 37.6374 128.84 37.4902 128.95L36.2202 127.71ZM37.2202 128.07C37.3081 127.979 37.3573 127.857 37.3573 127.73C37.3573 127.604 37.3081 127.482 37.2202 127.39C37.125 127.298 36.9977 127.247 36.8652 127.247C36.7326 127.247 36.6053 127.298 36.5102 127.39L37.2202 128.07Z" fill="#804C9E"/>
<path d="M38.65 128.1L39.21 128.62L38.98 128.86C39.125 128.828 39.2758 128.832 39.4189 128.872C39.562 128.912 39.6929 128.987 39.8 129.09C39.8975 129.165 39.9764 129.261 40.0308 129.371C40.0851 129.481 40.1134 129.602 40.1134 129.725C40.1134 129.848 40.0851 129.969 40.0308 130.079C39.9764 130.189 39.8975 130.285 39.8 130.36L38.74 131.48L38.17 130.94L38.97 130.09C39.2 129.86 39.45 129.64 39.14 129.34C39.0917 129.299 39.0355 129.268 38.9749 129.25C38.9142 129.232 38.8504 129.226 38.7875 129.234C38.7246 129.241 38.664 129.262 38.6093 129.294C38.5547 129.326 38.5073 129.369 38.47 129.42L37.57 130.37L37 129.83L38.65 128.1Z" fill="#804C9E"/>
<path d="M33.9997 122.62C33.9997 122.62 33.9997 122.73 33.9997 122.78C33.9997 122.83 34.0897 122.84 34.1297 122.78C34.1697 122.72 34.1297 122.67 34.0697 122.6C34.0409 122.569 34.0249 122.528 34.0249 122.485C34.0249 122.443 34.0409 122.402 34.0697 122.37C34.1125 122.343 34.1635 122.331 34.214 122.337C34.2645 122.343 34.3114 122.366 34.3467 122.402C34.3821 122.439 34.4037 122.487 34.4079 122.537C34.4121 122.588 34.3986 122.638 34.3697 122.68L34.2797 122.6C34.3297 122.55 34.2797 122.5 34.2797 122.46C34.2797 122.42 34.2097 122.46 34.1797 122.46C34.1497 122.46 34.1797 122.46 34.2397 122.63C34.2997 122.8 34.3397 122.77 34.2397 122.86C34.1397 122.95 34.0597 122.93 33.9497 122.86C33.9298 122.841 33.9139 122.817 33.9031 122.792C33.8923 122.766 33.8867 122.738 33.8867 122.71C33.8867 122.682 33.8923 122.655 33.9031 122.629C33.9139 122.603 33.9298 122.58 33.9497 122.56L33.9997 122.62Z" fill="#804C9E"/>
<path d="M34.5602 122.63L34.7702 122.83C34.7983 122.86 34.814 122.899 34.814 122.94C34.814 122.981 34.7983 123.021 34.7702 123.05C34.7458 123.069 34.7159 123.079 34.6852 123.079C34.6545 123.079 34.6246 123.069 34.6002 123.05C34.6192 123.071 34.6297 123.098 34.6297 123.125C34.6297 123.153 34.6192 123.18 34.6002 123.2C34.5711 123.233 34.5475 123.27 34.5302 123.31L34.4402 123.23C34.4402 123.23 34.5002 123.16 34.5202 123.12C34.5402 123.08 34.5202 123.04 34.5202 123L34.4402 122.92L34.2902 123.07L34.2002 122.99L34.5602 122.63ZM34.4702 122.89L34.5702 122.98C34.5702 122.98 34.6502 122.98 34.6802 122.98C34.7102 122.98 34.6802 122.91 34.6802 122.87L34.5902 122.78L34.4702 122.89Z" fill="#804C9E"/>
<path d="M34.9503 123L35.0303 123.08L34.6603 123.48L34.5703 123.4L34.9503 123Z" fill="#804C9E"/>
<path d="M35.2397 123.42L35.1197 123.3L35.1897 123.23L35.5197 123.54L35.4497 123.61L35.3297 123.5L35.0197 123.83L34.9297 123.74L35.2397 123.42Z" fill="#804C9E"/>
<path d="M35.5502 123.57L35.7702 123.78C35.7853 123.794 35.7974 123.811 35.8057 123.83C35.8139 123.849 35.8182 123.87 35.8182 123.89C35.8182 123.911 35.8139 123.931 35.8057 123.95C35.7974 123.969 35.7853 123.986 35.7702 124C35.7467 124.017 35.7188 124.025 35.6902 124.025C35.6616 124.025 35.6337 124.017 35.6102 124C35.6102 124 35.6102 124.1 35.6102 124.15C35.6102 124.2 35.5402 124.22 35.5402 124.26L35.4502 124.17C35.4705 124.132 35.4976 124.098 35.5302 124.07C35.539 124.062 35.5459 124.052 35.5507 124.041C35.5555 124.029 35.5579 124.017 35.5579 124.005C35.5579 123.993 35.5555 123.981 35.5507 123.97C35.5459 123.959 35.539 123.949 35.5302 123.94L35.4402 123.86L35.2902 124.01L35.2002 123.93L35.5502 123.57ZM35.4702 123.84L35.5702 123.93C35.5702 123.93 35.6402 123.93 35.6802 123.93C35.6885 123.924 35.6952 123.915 35.6999 123.906C35.7045 123.896 35.7069 123.886 35.7069 123.875C35.7069 123.865 35.7045 123.854 35.6999 123.845C35.6952 123.835 35.6885 123.827 35.6802 123.82L35.5902 123.72L35.4702 123.84Z" fill="#804C9E"/>
<path d="M36.0898 124.08L36.1798 124.17L35.9498 124.7L35.8598 124.62V124.5L35.7098 124.36L35.5998 124.42L35.5098 124.33L36.0898 124.08ZM35.8498 124.32L35.9498 124.41L36.0398 124.22L35.8498 124.32Z" fill="#804C9E"/>
<path d="M36.3605 124.34L36.4505 124.42L36.3605 124.84V124.85L36.6105 124.58L36.7005 124.66L36.3205 125.06L36.2305 124.97L36.3205 124.55L36.0605 124.82L35.9805 124.74L36.3605 124.34Z" fill="#804C9E"/>
<path d="M36.7205 125.35C36.6954 125.362 36.6681 125.368 36.6405 125.368C36.6128 125.368 36.5855 125.362 36.5605 125.35C36.5176 125.296 36.4955 125.228 36.4983 125.159C36.501 125.09 36.5284 125.024 36.5755 124.973C36.6226 124.922 36.6863 124.89 36.7551 124.882C36.8238 124.874 36.8931 124.891 36.9505 124.93C36.9864 124.972 37.0061 125.025 37.0061 125.08C37.0061 125.135 36.9864 125.188 36.9505 125.23L36.8605 125.15C36.8775 125.129 36.8868 125.102 36.8868 125.075C36.8868 125.048 36.8775 125.021 36.8605 125C36.7805 124.93 36.6905 125 36.6205 125C36.6051 125.015 36.5928 125.033 36.5844 125.053C36.576 125.072 36.5717 125.094 36.5717 125.115C36.5717 125.137 36.576 125.158 36.5844 125.178C36.5928 125.197 36.6051 125.215 36.6205 125.23C36.6317 125.243 36.6456 125.253 36.6611 125.26C36.6766 125.267 36.6935 125.271 36.7105 125.271C36.7275 125.271 36.7443 125.267 36.7599 125.26C36.7754 125.253 36.7892 125.243 36.8005 125.23L36.7105 125.14L36.7805 125.08L36.9405 125.24L36.7405 125.45H36.6805L36.7205 125.35Z" fill="#804C9E"/>
<path d="M37.25 125.85C37.2251 125.863 37.1977 125.869 37.17 125.869C37.1422 125.869 37.1148 125.863 37.09 125.85C37.0623 125.826 37.0402 125.796 37.025 125.762C37.0098 125.729 37.002 125.692 37.002 125.655C37.002 125.618 37.0098 125.582 37.025 125.548C37.0402 125.515 37.0623 125.485 37.09 125.46C37.1153 125.432 37.1462 125.41 37.1806 125.395C37.215 125.379 37.2523 125.372 37.29 125.372C37.3277 125.372 37.3649 125.379 37.3994 125.395C37.4338 125.41 37.4647 125.432 37.49 125.46C37.5279 125.501 37.549 125.555 37.549 125.61C37.549 125.666 37.5279 125.719 37.49 125.76L37.41 125.68C37.427 125.659 37.4363 125.632 37.4363 125.605C37.4363 125.578 37.427 125.551 37.41 125.53C37.395 125.513 37.3765 125.5 37.3558 125.49C37.3351 125.481 37.3127 125.476 37.29 125.476C37.2673 125.476 37.2448 125.481 37.2242 125.49C37.2035 125.5 37.185 125.513 37.17 125.53C37.153 125.545 37.1393 125.564 37.13 125.584C37.1206 125.605 37.1158 125.627 37.1158 125.65C37.1158 125.673 37.1206 125.695 37.13 125.716C37.1393 125.737 37.153 125.755 37.17 125.77C37.1942 125.793 37.2264 125.806 37.26 125.806C37.2935 125.806 37.3258 125.793 37.35 125.77L37.26 125.68L37.32 125.62L37.49 125.77L37.28 125.99H37.23L37.25 125.85Z" fill="#804C9E"/>
<path d="M37.7096 125.62L37.9196 125.82C37.9348 125.834 37.9468 125.851 37.9551 125.87C37.9634 125.889 37.9676 125.909 37.9676 125.93C37.9676 125.951 37.9634 125.971 37.9551 125.99C37.9468 126.009 37.9348 126.026 37.9196 126.04C37.8961 126.056 37.8682 126.065 37.8396 126.065C37.811 126.065 37.7831 126.056 37.7596 126.04C37.7738 126.063 37.7814 126.089 37.7814 126.115C37.7814 126.142 37.7738 126.168 37.7596 126.19C37.7596 126.19 37.6896 126.26 37.6896 126.3L37.5996 126.22C37.6169 126.18 37.6406 126.143 37.6696 126.11C37.6696 126.06 37.6696 126.03 37.6696 125.99L37.5896 125.9L37.4396 126.06L37.3496 125.98L37.7096 125.62ZM37.6296 125.88L37.7196 125.97C37.7258 125.98 37.7346 125.989 37.7451 125.995C37.7557 126.001 37.7675 126.004 37.7796 126.004C37.7917 126.004 37.8036 126.001 37.8141 125.995C37.8246 125.989 37.8334 125.98 37.8396 125.97C37.8479 125.964 37.8547 125.955 37.8593 125.946C37.8639 125.936 37.8663 125.926 37.8663 125.915C37.8663 125.905 37.8639 125.894 37.8593 125.885C37.8547 125.875 37.8479 125.867 37.8396 125.86L37.7396 125.77L37.6296 125.88Z" fill="#804C9E"/>
<path d="M38.6299 127C38.6102 127.023 38.5857 127.042 38.5581 127.055C38.5304 127.068 38.5004 127.074 38.4699 127.074C38.4395 127.074 38.4094 127.068 38.3818 127.055C38.3542 127.042 38.3296 127.023 38.3099 127C38.1999 126.89 38.1899 126.78 38.3099 126.68L38.5399 126.43L38.6299 126.51L38.3999 126.76C38.3852 126.768 38.3729 126.779 38.3643 126.793C38.3557 126.807 38.3512 126.824 38.3512 126.84C38.3512 126.857 38.3557 126.873 38.3643 126.887C38.3729 126.901 38.3852 126.913 38.3999 126.92C38.4599 126.98 38.5099 126.97 38.5599 126.92L38.7899 126.68L38.8799 126.76L38.6299 127Z" fill="#804C9E"/>
<path d="M38.93 126.77L39.11 126.94C39.1307 126.955 39.1475 126.974 39.1591 126.997C39.1707 127.02 39.1768 127.045 39.1768 127.07C39.1768 127.095 39.1707 127.12 39.1591 127.143C39.1475 127.166 39.1307 127.185 39.11 127.2C39.0932 127.218 39.0731 127.232 39.0507 127.241C39.0284 127.251 39.0043 127.256 38.98 127.256C38.9557 127.256 38.9317 127.251 38.9094 127.241C38.887 127.232 38.8668 127.218 38.85 127.2L38.76 127.11L38.63 127.25L38.54 127.17L38.93 126.77ZM38.84 127.04L38.91 127.1C38.91 127.1 38.99 127.17 39.04 127.1C39.09 127.03 39.04 127.01 39.04 126.97L38.97 126.9L38.84 127.04Z" fill="#804C9E"/>
<path d="M43.2503 127.55C43.3111 127.608 43.347 127.687 43.3503 127.77C43.3513 127.812 43.3438 127.855 43.3284 127.894C43.3129 127.934 43.2898 127.97 43.2603 128C43.2039 128.064 43.125 128.103 43.0403 128.11H41.2803C41.7807 128.408 42.3593 128.547 42.9403 128.51C43.299 128.471 43.6425 128.344 43.9403 128.14C44.1524 127.985 44.3727 127.841 44.6003 127.71C44.5303 127.71 44.2303 127.51 43.9203 127.32C43.6214 127.126 43.2762 127.016 42.9203 127C42.3414 126.995 41.774 127.162 41.2903 127.48L43.0403 127.43C43.0827 127.429 43.1248 127.437 43.1643 127.452C43.2038 127.467 43.2398 127.491 43.2703 127.52" fill="#804C9E"/>
<path d="M40.6205 126.64C40.6765 126.585 40.7519 126.554 40.8305 126.554C40.909 126.554 40.9844 126.585 41.0405 126.64C41.0974 126.701 41.1291 126.782 41.1291 126.865C41.1291 126.949 41.0974 127.029 41.0405 127.09L40.6805 127.46C41.1821 127.366 41.6388 127.109 41.9805 126.73C42.1847 126.474 42.3129 126.166 42.3505 125.84C42.3505 125.5 42.4405 125.18 42.4505 125.14C42.3805 125.14 42.0805 125.22 41.7505 125.27C41.4308 125.329 41.1334 125.474 40.8905 125.69C40.5337 126.051 40.3023 126.518 40.2305 127.02L40.5805 126.65" fill="#804C9E"/>
<path d="M42.6101 130.45C42.6101 130.39 42.5301 130.09 42.4701 129.76C42.4277 129.437 42.2842 129.136 42.0601 128.9C41.8342 128.664 41.557 128.484 41.25 128.373C40.943 128.262 40.6145 128.223 40.2901 128.26C40.2636 128.586 40.314 128.913 40.4374 129.215C40.5607 129.517 40.7535 129.786 41.0001 130C41.2513 130.213 41.5623 130.342 41.8901 130.37L42.5901 130.47L42.6101 130.45Z" fill="#804C9E"/>
<path d="M40.72 126.78L39.7799 127.78C39.7648 127.804 39.7568 127.832 39.7568 127.86C39.7568 127.888 39.7648 127.916 39.7799 127.94C39.7941 127.965 39.8145 127.985 39.8391 127.999C39.8637 128.013 39.8916 128.02 39.9199 128.02L43.07 127.94C43.1019 127.932 43.1302 127.913 43.1504 127.887C43.1706 127.86 43.1815 127.828 43.1815 127.795C43.1815 127.762 43.1706 127.73 43.1504 127.704C43.1302 127.677 43.1019 127.659 43.07 127.65L40.27 127.72L40.97 126.99C40.9833 126.977 40.9938 126.962 41.001 126.944C41.0083 126.927 41.012 126.909 41.012 126.89C41.012 126.871 41.0083 126.853 41.001 126.836C40.9938 126.819 40.9833 126.803 40.97 126.79C40.9578 126.775 40.9425 126.764 40.9252 126.755C40.9079 126.747 40.889 126.743 40.8699 126.743C40.8509 126.743 40.832 126.747 40.8147 126.755C40.7974 126.764 40.7822 126.775 40.77 126.79" fill="#804C9E"/>
<path d="M75.9502 122.5L85.1902 137.68L98.3902 121.19L75.9502 122.5Z" fill="#BF8CBF"/>
<path d="M75.9502 122.5L85.1902 137.68L98.3902 121.19L75.9502 122.5Z" stroke="#231F20" stroke-width="1.17" stroke-miterlimit="10"/>
<path d="M86.8305 130.72L81.7305 154.57L85.9305 154.72L90.7305 130.62L86.8305 130.72Z" fill="#7DA840"/>
<path d="M86.8305 130.72L81.7305 154.57L85.9305 154.72L90.7305 130.62L86.8305 130.72Z" stroke="#231F20" stroke-width="1.17" stroke-miterlimit="10"/>
<path d="M90.3804 132.9C94.8804 132.07 97.9504 130.42 101.93 127.57C101.93 127.57 103.78 124.24 103.78 118.01L97.0004 111.24C97.0004 111.24 95.2204 129.5 86.6904 130.7L90.3804 132.9Z" fill="#7DA840"/>
<path d="M90.3804 132.9C94.8804 132.07 97.9504 130.42 101.93 127.57C101.93 127.57 103.78 124.24 103.78 118.01L97.0004 111.24C97.0004 111.24 95.2204 129.5 86.6904 130.7L90.3804 132.9Z" stroke="#231F20" stroke-width="1.17" stroke-miterlimit="10"/>
<path d="M85.9102 154.52V130.63" stroke="#231F20" stroke-width="1.17" stroke-miterlimit="10"/>
<path d="M85.63 130.63V154.52H80.25V153.51H85.63" fill="#7DA840"/>
<path d="M85.63 130.63V154.52H80.25V153.51H85.63" stroke="#231F20" stroke-width="1.17" stroke-miterlimit="10"/>
<path d="M80.25 154.52V129.76" stroke="#231F20" stroke-width="1.17" stroke-miterlimit="10"/>
<path d="M85.63 154.52H80.25V129.76L82.48 129.07L85.63 130.82V154.52Z" fill="#7DA840"/>
<path d="M85.63 154.52H80.25V129.76L82.48 129.07L85.63 130.82V154.52Z" stroke="#231F20" stroke-width="1.17" stroke-miterlimit="10"/>
<path d="M85.63 130.63V154.52H80.25V153.51H85.63" fill="#7DA840"/>
<path d="M85.63 130.63V154.52H80.25V153.51H85.63" stroke="#231F20" stroke-width="1.17" stroke-miterlimit="10"/>
<path d="M80.25 154.52V129.76" stroke="#231F20" stroke-width="1.17" stroke-miterlimit="10"/>
<path d="M81.5098 136.56C81.5098 136.817 81.586 137.069 81.7289 137.283C81.8717 137.496 82.0747 137.663 82.3123 137.761C82.5498 137.86 82.8112 137.885 83.0634 137.835C83.3156 137.785 83.5472 137.661 83.729 137.479C83.9108 137.298 84.0346 137.066 84.0848 136.814C84.1349 136.562 84.1092 136.3 84.0108 136.063C83.9124 135.825 83.7458 135.622 83.532 135.479C83.3182 135.337 83.0669 135.26 82.8098 135.26C82.639 135.26 82.47 135.294 82.3123 135.359C82.1546 135.425 82.0112 135.52 81.8905 135.641C81.7698 135.762 81.674 135.905 81.6087 136.063C81.5434 136.22 81.5098 136.39 81.5098 136.56Z" fill="#7DA840"/>
<path d="M81.5098 136.56C81.5098 136.817 81.586 137.069 81.7289 137.283C81.8717 137.496 82.0747 137.663 82.3123 137.761C82.5498 137.86 82.8112 137.885 83.0634 137.835C83.3156 137.785 83.5472 137.661 83.729 137.479C83.9108 137.298 84.0346 137.066 84.0848 136.814C84.1349 136.562 84.1092 136.3 84.0108 136.063C83.9124 135.825 83.7458 135.622 83.532 135.479C83.3182 135.337 83.0669 135.26 82.8098 135.26C82.639 135.26 82.47 135.294 82.3123 135.359C82.1546 135.425 82.0112 135.52 81.8905 135.641C81.7698 135.762 81.674 135.905 81.6087 136.063C81.5434 136.22 81.5098 136.39 81.5098 136.56V136.56Z" stroke="#231F20" stroke-width="1.17" stroke-miterlimit="10"/>
<path d="M81.5098 148.38C81.5098 148.637 81.586 148.889 81.7289 149.102C81.8717 149.316 82.0747 149.483 82.3123 149.581C82.5498 149.68 82.8112 149.705 83.0634 149.655C83.3156 149.605 83.5472 149.481 83.729 149.299C83.9108 149.118 84.0346 148.886 84.0848 148.634C84.1349 148.382 84.1092 148.12 84.0108 147.883C83.9124 147.645 83.7458 147.442 83.532 147.299C83.3182 147.156 83.0669 147.08 82.8098 147.08C82.639 147.08 82.47 147.114 82.3123 147.179C82.1546 147.244 82.0112 147.34 81.8905 147.461C81.7698 147.582 81.674 147.725 81.6087 147.883C81.5434 148.04 81.5098 148.209 81.5098 148.38Z" fill="#7DA840"/>
<path d="M81.5098 148.38C81.5098 148.637 81.586 148.889 81.7289 149.102C81.8717 149.316 82.0747 149.483 82.3123 149.581C82.5498 149.68 82.8112 149.705 83.0634 149.655C83.3156 149.605 83.5472 149.481 83.729 149.299C83.9108 149.118 84.0346 148.886 84.0848 148.634C84.1349 148.382 84.1092 148.12 84.0108 147.883C83.9124 147.645 83.7458 147.442 83.532 147.299C83.3182 147.156 83.0669 147.08 82.8098 147.08C82.639 147.08 82.47 147.114 82.3123 147.179C82.1546 147.244 82.0112 147.34 81.8905 147.461C81.7698 147.582 81.674 147.725 81.6087 147.883C81.5434 148.04 81.5098 148.209 81.5098 148.38V148.38Z" stroke="#231F20" stroke-width="1.17" stroke-miterlimit="10"/>
<path d="M65.4805 118L72.2505 111.23C72.2505 111.23 75.5805 124.56 86.0905 130.62L81.3405 135L79.2605 129.26C79.2605 129.26 73.2605 131.26 68.2605 130.52C66.5919 126.547 65.6503 122.306 65.4805 118Z" fill="#7DA840"/>
<path d="M65.4805 118L72.2505 111.23C72.2505 111.23 75.5805 124.56 86.0905 130.62L81.3405 135L79.2605 129.26C79.2605 129.26 73.2605 131.26 68.2605 130.52C66.5919 126.547 65.6503 122.306 65.4805 118Z" stroke="#231F20" stroke-width="1.17" stroke-miterlimit="10"/>
<path d="M2.64998 44.1401C6.04998 51.4701 11.2 59.3401 15.47 74.5301C19.74 89.7201 25 128.67 90.5 123C156 117.33 156.98 68.8601 156.5 55.0901C156.02 41.3201 163.15 23.7601 161.25 19.4801C159.35 15.2001 142.73 15.2101 132.76 19.4801C132.76 19.4801 123.26 -2.83987 98.57 7.14013C98.57 7.14013 78.15 -9.00988 57.74 9.51013C57.74 9.51013 33.99 1.44013 23.07 28.5101C23.07 28.5101 -7.51002 22.2401 2.64998 44.1801" fill="#BF8CBF"/>
<path d="M2.64998 44.1401C6.04998 51.4701 11.2 59.3401 15.47 74.5301C19.74 89.7201 25 128.67 90.5 123C156 117.33 156.98 68.8601 156.5 55.0901C156.02 41.3201 163.15 23.7601 161.25 19.4801C159.35 15.2001 142.73 15.2101 132.76 19.4801C132.76 19.4801 123.26 -2.83987 98.57 7.14013C98.57 7.14013 78.15 -9.00988 57.74 9.51013C57.74 9.51013 33.99 1.44013 23.07 28.5101C23.07 28.5101 -7.51002 22.2401 2.64998 44.1801" stroke="#231F20" stroke-width="1.17" stroke-miterlimit="10"/>
<path d="M61.0596 94.9999C61.0596 94.9999 66.2796 112.1 89.0596 110.67C111.84 109.24 112.33 91.6699 112.33 91.6699L61.0596 94.9999Z" fill="#A13867"/>
<path d="M61.0596 94.9999C61.0596 94.9999 66.2796 112.1 89.0596 110.67C111.84 109.24 112.33 91.6699 112.33 91.6699L61.0596 94.9999Z" stroke="#231F20" stroke-width="1.17" stroke-miterlimit="10"/>
<path d="M106.56 103.88C90.2596 99.2402 75.8296 103.44 69.5596 105.88C73.8396 108.88 80.0796 111.2 89.0596 110.64C97.6896 110.1 103.12 107.24 106.54 103.9" fill="#F17297"/>
<path d="M106.56 103.88C90.2596 99.2402 75.8296 103.44 69.5596 105.88C73.8396 108.88 80.0796 111.2 89.0596 110.64C97.6896 110.1 103.12 107.24 106.54 103.9" stroke="#231F20" stroke-width="1.17" stroke-miterlimit="10"/>
<path d="M50.3804 45.0901C41.8304 46.0301 35.3804 56.4901 37.7904 66.9401C40.2004 77.3901 45.1504 84.0001 57.2604 82.8401C69.3704 81.6801 66.7604 68.0701 65.8104 59.5501C64.8604 51.0301 63.4304 43.6701 50.3804 45.0901Z" fill="white"/>
<path d="M50.3804 45.0901C41.8304 46.0301 35.3804 56.4901 37.7904 66.9401C40.2004 77.3901 45.1504 84.0001 57.2604 82.8401C69.3704 81.6801 66.7604 68.0701 65.8104 59.5501C64.8604 51.0301 63.4304 43.6701 50.3804 45.0901Z" stroke="#231F20" stroke-width="1.17" stroke-linecap="round" stroke-linejoin="round"/>
<path d="M107.21 74.36C109.7 77.03 113 77.92 118.21 76.94C123.42 75.96 136.37 71.51 131.03 52.94C128.45 44.13 120.71 38.69 110.64 40.83C100.57 42.97 101.38 50.26 103.16 58.83C104.94 67.4 104.77 71.74 107.26 74.42" fill="white"/>
<path d="M107.21 74.36C109.7 77.03 113 77.92 118.21 76.94C123.42 75.96 136.37 71.51 131.03 52.94C128.45 44.13 120.71 38.69 110.64 40.83C100.57 42.97 101.38 50.26 103.16 58.83C104.94 67.4 104.77 71.74 107.26 74.42" stroke="#231F20" stroke-width="1.17" stroke-linecap="round" stroke-linejoin="round"/>
<path d="M65.3701 58.5C64.1601 52.15 58.6601 50.5 53.9201 51.03C49.1801 51.56 43.0001 56.26 44.0001 67.71C45.0001 79.16 52.2201 82.14 57.1901 81.89C62.1601 81.64 68.8901 76.67 65.4001 58.5" fill="#695237"/>
<path d="M116.46 76.4303C122.08 76.2103 131.07 67.5403 126.63 56.4303C122.19 45.3203 113.33 45.8503 109.41 47.0503C105.49 48.2503 104.32 55.3803 105.5 63.0003C106.68 70.6203 109.13 76.7703 116.5 76.4703" fill="#695237"/>
<path d="M65.6403 66.4303C65.6403 72.9903 61.4303 78.3103 56.2303 78.3103C51.0303 78.3103 46.8203 73.0003 46.8203 66.4303C46.8203 59.8603 51.0003 54.5503 56.2303 54.5503C61.4603 54.5503 65.6403 59.8703 65.6403 66.4303Z" fill="#44321A"/>
<path d="M125.52 60.7201C126.04 67.2601 122.27 72.8901 117.09 73.3101C111.91 73.7301 107.28 68.7601 106.76 62.2201C106.24 55.6801 110 50.0001 115.19 49.6201C120.38 49.2401 125 54.1801 125.52 60.7201Z" fill="#44321A"/>
<path d="M120.81 71.45C120.81 72.1779 120.594 72.8893 120.19 73.4945C119.786 74.0997 119.211 74.5714 118.538 74.8499C117.866 75.1284 117.126 75.2013 116.412 75.0593C115.698 74.9173 115.043 74.5668 114.528 74.0522C114.013 73.5375 113.663 72.8818 113.521 72.168C113.379 71.4541 113.452 70.7142 113.73 70.0417C114.009 69.3693 114.481 68.7946 115.086 68.3902C115.691 67.9858 116.402 67.77 117.13 67.77C117.613 67.77 118.092 67.8652 118.538 68.0501C118.985 68.2351 119.391 68.5062 119.732 68.8479C120.074 69.1896 120.345 69.5953 120.53 70.0417C120.715 70.4882 120.81 70.9668 120.81 71.45Z" fill="white"/>
<path d="M58.7799 76.4403C58.7799 77.1681 58.5641 77.8796 58.1597 78.4847C57.7554 79.0899 57.1806 79.5616 56.5082 79.8401C55.8358 80.1187 55.0958 80.1915 54.382 80.0495C53.6681 79.9076 53.0124 79.5571 52.4978 79.0424C51.9831 78.5277 51.6326 77.872 51.4906 77.1582C51.3486 76.4443 51.4215 75.7044 51.7 75.032C51.9786 74.3595 52.4503 73.7848 53.0554 73.3804C53.6606 72.9761 54.3721 72.7603 55.0999 72.7603C56.0759 72.7603 57.0119 73.148 57.7021 73.8381C58.3922 74.5282 58.7799 75.4643 58.7799 76.4403Z" fill="white"/>
<path d="M158.75 153.2C157.03 144.4 154.11 141.32 150.65 136.12C150.65 136.12 130.03 149.31 130.33 152.44C125.92 152.91 118.68 151.74 106.85 146.21L101.91 169.21C101.91 169.21 135.99 174.88 139.75 173.58H139.85C151.78 172.53 160.64 162.41 158.75 153.25" fill="#BF8CBF"/>
<path d="M158.75 153.2C157.03 144.4 154.11 141.32 150.65 136.12C150.65 136.12 130.03 149.31 130.33 152.44C125.92 152.91 118.68 151.74 106.85 146.21L101.91 169.21C101.91 169.21 135.99 174.88 139.75 173.58H139.85C151.78 172.48 160.64 162.36 158.75 153.2Z" stroke="#231F20" stroke-width="1.17" stroke-miterlimit="10"/>
<path d="M103.44 145.07C103.44 145.07 107.22 141.98 107.56 146.45C107.9 150.92 107.22 172.1 98.9704 169.92C90.7204 167.74 85.2404 162.58 85.5804 149.92C85.9204 137.26 86.5804 118.67 103.44 145.11" fill="white"/>
<path d="M103.44 145.07C103.44 145.07 107.22 141.98 107.56 146.45C107.9 150.92 107.22 172.1 98.9704 169.92C90.7204 167.74 85.2404 162.58 85.5804 149.92C85.9204 137.26 86.6104 118.63 103.44 145.07Z" stroke="#231F20" stroke-width="1.17" stroke-linecap="round" stroke-linejoin="round"/>
<path d="M16.3396 155.6C18.0696 146.8 20.7296 140.81 24.1896 135.6C24.1896 135.6 43.4196 149.3 43.1196 152.43C47.5296 152.9 54.7796 151.73 66.5996 146.2L71.5396 169.2C71.5396 169.2 37.4696 174.87 33.6996 173.57H33.5996C21.6696 172.52 14.4596 164.8 16.3396 155.64" fill="#BF8CBF"/>
<path d="M16.3396 155.6C18.0696 146.8 20.7296 140.81 24.1896 135.6C24.1896 135.6 43.4196 149.3 43.1196 152.43C47.5296 152.9 54.7796 151.73 66.5996 146.2L71.5396 169.2C71.5396 169.2 37.4696 174.87 33.6996 173.57H33.5996C21.6696 172.48 14.4596 164.76 16.3396 155.6Z" stroke="#231F20" stroke-width="1.17" stroke-miterlimit="10"/>
<path d="M69.9995 145.07C69.9995 145.07 66.2195 141.98 65.8795 146.45C65.5395 150.92 66.2195 172.1 74.4695 169.92C82.7195 167.74 88.1995 162.58 87.8595 149.92C87.5195 137.26 86.8595 118.67 69.9995 145.11" fill="white"/>
<path d="M69.9995 145.07C69.9995 145.07 66.2195 141.98 65.8795 146.45C65.5395 150.92 66.2195 172.1 74.4695 169.92C82.7195 167.74 88.1995 162.58 87.8595 149.92C87.5195 137.26 86.8395 118.63 69.9995 145.07Z" stroke="#231F20" stroke-width="1.17" stroke-linecap="round" stroke-linejoin="round"/>
<path d="M108.86 137.48C108.841 137.4 108.795 137.329 108.729 137.279C108.663 137.23 108.582 137.205 108.5 137.21C108.3 137.21 108.21 137.28 108.21 137.43C108.21 137.58 108.31 137.62 108.51 137.65L108.73 137.71H108.86C108.932 137.737 108.999 137.774 109.06 137.82C109.147 137.878 109.217 137.957 109.264 138.05C109.311 138.143 109.334 138.246 109.33 138.35C109.334 138.458 109.313 138.565 109.27 138.663C109.227 138.762 109.162 138.85 109.08 138.92C108.899 139.047 108.681 139.11 108.46 139.1C108.269 139.102 108.082 139.05 107.92 138.95C107.841 138.895 107.774 138.826 107.723 138.745C107.671 138.664 107.636 138.574 107.62 138.48L108.07 138.36C108.09 138.459 108.146 138.547 108.227 138.606C108.309 138.666 108.41 138.692 108.51 138.68C108.591 138.681 108.67 138.661 108.74 138.62C108.772 138.603 108.799 138.577 108.817 138.545C108.834 138.513 108.843 138.476 108.84 138.44C108.843 138.405 108.835 138.369 108.817 138.339C108.799 138.308 108.772 138.284 108.74 138.27H108.62H108.46L108.26 138.22L108.08 138.16C107.98 138.113 107.894 138.04 107.83 137.95C107.757 137.841 107.722 137.711 107.73 137.58C107.723 137.468 107.744 137.357 107.791 137.256C107.839 137.154 107.91 137.066 108 137C108.148 136.876 108.337 136.811 108.53 136.82C108.704 136.801 108.88 136.843 109.026 136.94C109.172 137.037 109.28 137.182 109.33 137.35L108.86 137.48Z" fill="#804C9E"/>
<path d="M110.09 139.1H109.6V136.83H110.48H110.79C110.877 136.842 110.96 136.876 111.03 136.93C111.113 136.992 111.179 137.075 111.22 137.17C111.268 137.27 111.292 137.379 111.29 137.49C111.295 137.618 111.26 137.743 111.19 137.85C111.125 137.952 111.031 138.032 110.92 138.08L111.31 139.08H110.77L110.44 138.19H110.09V139.1ZM110.09 137.82H110.36C110.458 137.841 110.561 137.841 110.66 137.82C110.7 137.791 110.733 137.751 110.754 137.706C110.775 137.66 110.784 137.61 110.78 137.56C110.793 137.518 110.793 137.472 110.78 137.43C110.761 137.391 110.734 137.357 110.7 137.33C110.634 137.311 110.565 137.311 110.5 137.33H110.13L110.09 137.82Z" fill="#804C9E"/>
<path d="M112.05 136.83H111.56V139.1H112.05V136.83Z" fill="#804C9E"/>
<path d="M114.85 137.28H114.32V139.1H113.83V137.28H113.3V136.83H114.85V137.28Z" fill="#804C9E"/>
<path d="M115.55 139.1H115.06V136.83H116H116.3C116.387 136.842 116.47 136.876 116.54 136.93C116.623 136.992 116.689 137.075 116.73 137.17C116.778 137.27 116.802 137.379 116.8 137.49C116.805 137.618 116.77 137.743 116.7 137.85C116.641 137.954 116.55 138.035 116.44 138.08L116.83 139.08H116.28L115.96 138.19H115.6L115.55 139.1ZM115.55 137.82H115.82C115.918 137.841 116.021 137.841 116.12 137.82C116.16 137.791 116.193 137.751 116.214 137.706C116.235 137.66 116.244 137.61 116.24 137.56C116.249 137.517 116.249 137.473 116.24 137.43C116.221 137.388 116.189 137.353 116.15 137.33C116.085 137.309 116.015 137.309 115.95 137.33H115.58L115.55 137.82Z" fill="#804C9E"/>
<path d="M118.75 139.1H118.22L118.09 138.63H117.41L117.28 139.1H116.85L117.52 136.83H118.09L118.75 139.1ZM117.97 138.22L117.75 137.42L117.53 138.22H117.97Z" fill="#804C9E"/>
<path d="M120.55 139.1H120.12L119.32 137.58H119.3V139.1H118.92V136.83H119.45L120.16 138.17H120.17V136.83H120.55V139.1Z" fill="#804C9E"/>
<path d="M121.67 138.31V137.89H122.53V139.1H122.31L122.24 138.84C122.172 138.929 122.087 139.004 121.99 139.06L121.84 139.11C121.783 139.12 121.726 139.12 121.67 139.11C121.541 139.117 121.412 139.09 121.296 139.032C121.181 138.974 121.082 138.887 121.01 138.78C120.863 138.536 120.79 138.255 120.8 137.97C120.798 137.77 120.828 137.571 120.89 137.38C120.952 137.211 121.059 137.063 121.2 136.95C121.346 136.84 121.526 136.783 121.71 136.79C121.848 136.788 121.985 136.819 122.11 136.88C122.226 136.943 122.323 137.036 122.39 137.15C122.47 137.273 122.518 137.414 122.53 137.56L122.07 137.63C122.08 137.577 122.08 137.523 122.07 137.47C122.049 137.42 122.022 137.373 121.99 137.33C121.959 137.291 121.92 137.259 121.874 137.238C121.829 137.217 121.779 137.208 121.73 137.21C121.658 137.207 121.588 137.228 121.53 137.27C121.472 137.312 121.43 137.372 121.41 137.44C121.351 137.614 121.324 137.797 121.33 137.98C121.327 138.148 121.357 138.314 121.42 138.47C121.446 138.535 121.492 138.59 121.551 138.627C121.61 138.665 121.68 138.683 121.75 138.68C121.796 138.683 121.842 138.675 121.886 138.658C121.929 138.64 121.968 138.614 122 138.58C122.035 138.541 122.062 138.495 122.079 138.445C122.097 138.396 122.103 138.343 122.1 138.29L121.67 138.31Z" fill="#804C9E"/>
<path d="M116.42 136.06C115.805 136.059 115.192 135.995 114.59 135.87L114.18 135.8L113.63 135.7L113.08 135.6C112.089 135.416 111.087 135.299 110.08 135.25C109.149 135.278 108.221 135.361 107.3 135.5C107.836 135.25 108.411 135.091 109 135.03C109.297 134.979 109.598 134.945 109.9 134.93H110.29H110.49C110.71 134.93 110.95 134.93 111.2 134.93C111.964 134.999 112.722 135.119 113.47 135.29L115.05 135.6C115.05 135.6 115.66 135.69 115.97 135.7H116.56C116.569 135.244 116.512 134.79 116.39 134.35C116.266 133.972 116.053 133.629 115.77 133.35C115.711 133.348 115.655 133.327 115.61 133.29C115.571 133.259 115.538 133.222 115.51 133.18H115.42C115.288 133.195 115.161 133.239 115.05 133.31C114.91 133.411 114.794 133.54 114.71 133.69C114.702 133.562 114.719 133.433 114.76 133.31C114.82 133.216 114.891 133.129 114.97 133.05C114.844 132.998 114.724 132.935 114.61 132.86C114.358 132.629 114.075 132.434 113.77 132.28C113.68 132.241 113.586 132.214 113.49 132.2H113.4C113.251 132.198 113.105 132.24 112.98 132.32C112.963 132.214 112.97 132.104 113 132C113.101 131.921 113.222 131.869 113.35 131.85C113.342 131.724 113.381 131.599 113.46 131.5C113.48 131.475 113.506 131.455 113.536 131.441C113.565 131.427 113.597 131.42 113.63 131.42H113.72H113.8C113.849 131.242 113.943 131.078 114.072 130.945C114.202 130.812 114.362 130.714 114.54 130.66C114.734 130.571 114.946 130.523 115.16 130.52C115.293 130.515 115.426 130.539 115.55 130.59C115.577 130.529 115.623 130.477 115.68 130.442C115.736 130.406 115.803 130.388 115.87 130.39C115.935 130.373 116.004 130.373 116.07 130.39C116.125 130.415 116.173 130.453 116.21 130.5C116.241 130.456 116.283 130.421 116.332 130.398C116.382 130.375 116.436 130.366 116.49 130.37H116.55C116.648 130.382 116.743 130.412 116.83 130.46C116.857 130.475 116.881 130.496 116.9 130.52C116.558 130.794 116.304 131.163 116.17 131.58C116.067 131.81 116.013 132.059 116.01 132.31C116.021 132.366 116.021 132.424 116.01 132.48C116.09 132.449 116.174 132.432 116.26 132.43H116.36C116.499 132.467 116.627 132.539 116.73 132.64C116.653 132.633 116.576 132.633 116.5 132.64C116.423 132.637 116.347 132.654 116.28 132.69C116.185 132.745 116.097 132.812 116.02 132.89C116.027 132.937 116.027 132.984 116.02 133.03C116.002 133.07 115.978 133.107 115.95 133.14C116.322 133.527 116.576 134.013 116.68 134.54C116.747 134.889 116.778 135.245 116.77 135.6C117.296 135.491 117.808 135.327 118.3 135.11C118.578 134.973 118.831 134.79 119.05 134.57C119.572 133.826 119.784 132.908 119.64 132.01C119.589 131.95 119.542 131.887 119.5 131.82L119.42 131.74H119.37C119.267 131.73 119.163 131.73 119.06 131.74C118.88 131.734 118.702 131.772 118.54 131.85C118.31 131.962 118.101 132.111 117.92 132.29C117.996 132.032 118.137 131.798 118.33 131.61C118.467 131.489 118.638 131.413 118.82 131.39C118.637 131.25 118.49 131.068 118.39 130.86C118.212 130.479 117.956 130.138 117.64 129.86C117.509 129.735 117.365 129.624 117.21 129.53C116.995 129.391 116.746 129.311 116.49 129.3H116.43C116.457 129.208 116.503 129.122 116.565 129.048C116.627 128.974 116.703 128.913 116.79 128.87C116.893 128.857 116.997 128.857 117.1 128.87C117.18 128.863 117.26 128.863 117.34 128.87C117.438 128.707 117.58 128.575 117.75 128.49C117.812 128.476 117.877 128.476 117.94 128.49C118.073 128.493 118.204 128.517 118.33 128.56C118.478 128.375 118.67 128.229 118.887 128.135C119.105 128.04 119.343 128.001 119.58 128.02H119.69C119.949 128.012 120.207 128.055 120.449 128.148C120.692 128.24 120.913 128.381 121.1 128.56C121.226 128.506 121.362 128.476 121.5 128.47C121.566 128.456 121.634 128.456 121.7 128.47C121.836 128.542 121.95 128.649 122.03 128.78C122.22 128.772 122.41 128.813 122.58 128.9C122.714 128.983 122.827 129.096 122.91 129.23C122.461 129.366 122.045 129.592 121.688 129.895C121.33 130.198 121.038 130.57 120.83 130.99C120.763 131.098 120.689 131.202 120.61 131.3C120.73 131.3 121.18 131.3 121.35 131.55C121.474 131.722 121.541 131.929 121.54 132.14C121.331 131.986 121.087 131.887 120.83 131.85C120.44 131.8 120.14 131.78 120.14 131.78C120.137 131.807 120.128 131.832 120.114 131.854C120.1 131.877 120.082 131.896 120.06 131.91C120.003 131.957 119.939 131.994 119.87 132.02C119.918 132.619 119.881 133.222 119.76 133.81C119.668 134.201 119.49 134.566 119.24 134.88C119.179 134.959 119.108 135.029 119.03 135.09C119.306 135 119.591 134.939 119.88 134.91H120.3C121.103 134.924 121.886 135.163 122.56 135.6L122.75 135.72H122.61C122.31 135.596 121.993 135.518 121.67 135.49H121.27H120.69C120.165 135.559 119.644 135.655 119.13 135.78L118.74 135.87C118.282 135.978 117.817 136.058 117.35 136.11C117.019 136.161 116.684 136.184 116.35 136.18" fill="#804C9E"/>
</svg>
